<svg xmlns="http://www.w3.org/2000/svg" xmlns:xlink="http://www.w3.org/1999/xlink" width="1000" zoomAndPan="magnify" viewBox="0 0 750 374.999991" height="500" preserveAspectRatio="xMidYMid meet" version="1.0"><defs><g/></defs><path stroke-linecap="butt" transform="matrix(0.75, 0, 0, 0.75, -49.028421, 10.893075)" fill="none" stroke-linejoin="miter" d="M 236.642077 66.350904 C 238.225411 66.350904 239.454578 66.814446 240.329578 67.741529 C 241.256661 68.611321 241.720203 69.814446 241.720203 71.340488 L 241.720203 115.293615 C 241.720203 116.819657 241.256661 118.048824 240.329578 118.975907 C 239.454578 119.845699 238.225411 120.283199 236.642077 120.283199 L 189.089991 120.283199 C 187.730616 120.283199 187.048324 120.965491 187.048324 122.330074 L 187.048324 296.007169 C 187.048324 297.533211 186.584782 298.762377 185.652491 299.689461 C 184.782699 300.564461 183.579574 301.001961 182.053532 301.001961 L 129.100404 301.001961 C 127.51707 301.001961 126.261862 300.564461 125.334778 299.689461 C 124.459778 298.762377 124.027487 297.533211 124.027487 296.007169 L 124.027487 122.330074 C 124.027487 120.965491 123.371237 120.283199 122.058737 120.283199 L 75.407692 120.283199 C 73.824358 120.283199 72.6004 119.845699 71.7254 118.975907 C 70.8504 118.048824 70.418108 116.819657 70.418108 115.293615 L 70.418108 71.340488 C 70.418108 69.814446 70.8504 68.611321 71.7254 67.741529 C 72.6004 66.814446 73.824358 66.350904 75.407692 66.350904 Z M 340.220209 304.356128 C 323.470208 304.356128 308.70979 301.001961 295.944165 294.288419 C 283.230622 287.574877 273.407705 278.137376 266.475413 265.970709 C 259.548329 253.804041 256.084787 239.668624 256.084787 223.574873 L 256.084787 143.772784 C 256.084787 127.679033 259.548329 113.600907 266.475413 101.543615 C 273.407705 89.481114 283.230622 80.152988 295.944165 73.548821 C 308.70979 66.949862 323.470208 63.647779 340.220209 63.647779 C 357.027502 63.647779 371.840003 66.949862 384.66292 73.548821 C 397.537921 80.152988 407.444172 89.481114 414.371256 101.543615 C 421.303548 113.600907 424.76709 127.679033 424.76709 143.772784 L 424.76709 223.574873 C 424.76709 239.668624 421.246256 253.804041 414.209797 265.970709 C 407.173339 278.137376 397.267088 287.574877 384.501462 294.288419 C 371.78792 301.001961 357.027502 304.356128 340.220209 304.356128 Z M 340.220209 250.418624 C 346.715001 250.418624 351.923335 248.184249 355.855627 243.710291 C 359.78271 239.236332 361.746252 233.288415 361.746252 225.866539 L 361.746252 142.054034 C 361.746252 134.68945 359.78271 128.767575 355.855627 124.293616 C 351.923335 119.819657 346.715001 117.585282 340.220209 117.585282 C 334.001459 117.585282 328.928542 119.819657 324.99625 124.293616 C 321.069166 128.767575 319.105624 134.68945 319.105624 142.054034 L 319.105624 225.866539 C 319.105624 233.288415 321.069166 239.236332 324.99625 243.710291 C 328.928542 248.184249 334.001459 250.418624 340.220209 250.418624 Z M 501.136886 301.001961 C 498.246261 301.001961 496.470219 299.554044 495.813969 296.663419 L 439.506674 71.996738 L 439.506674 70.684237 C 439.506674 67.793612 440.954591 66.350904 443.845216 66.350904 L 499.824386 66.350904 C 502.93897 66.350904 504.84522 67.793612 505.553553 70.684237 L 524.954596 176.595703 C 525.173346 177.522786 525.553555 177.986328 526.10043 177.986328 C 526.699388 177.986328 527.110846 177.522786 527.329596 176.595703 L 544.761889 71.012363 C 545.194181 67.902987 546.996264 66.350904 550.162931 66.350904 L 595.011893 66.350904 C 597.959809 66.350904 599.761893 67.902987 600.412935 71.012363 L 619.813978 176.595703 C 620.084811 177.522786 620.496269 177.986328 621.037936 177.986328 C 621.584811 177.986328 621.970228 177.522786 622.183769 176.595703 L 639.621271 71.012363 C 640.053562 67.902987 641.855646 66.350904 645.022313 66.350904 L 700.350441 66.350904 C 703.897316 66.350904 705.340025 68.231112 704.688983 71.996738 L 653.371271 296.663419 C 652.715021 299.554044 650.93898 301.001961 648.048354 301.001961 L 598.043143 301.001961 C 594.933768 301.001961 593.157726 299.444669 592.720226 296.335294 L 573.569183 185.022787 C 573.350433 184.095703 572.970224 183.632162 572.423349 183.632162 C 571.876474 183.632162 571.496266 184.095703 571.277516 185.022787 L 554.829598 296.335294 C 554.610848 299.444669 552.808765 301.001961 549.423348 301.001961 Z M 873.991078 115.293615 C 873.991078 116.819657 873.527536 118.048824 872.600452 118.975907 C 871.725452 119.845699 870.496286 120.283199 868.918161 120.283199 L 787.15253 120.283199 C 785.787947 120.283199 785.105655 120.965491 785.105655 122.330074 L 785.105655 153.840493 C 785.105655 155.152993 785.787947 155.804035 787.15253 155.804035 L 834.376492 155.804035 C 835.959825 155.804035 837.188992 156.267576 838.058784 157.19466 C 838.985867 158.06966 839.454617 159.298827 839.454617 160.88216 L 839.454617 204.42383 C 839.454617 206.001955 838.985867 207.257163 838.058784 208.189455 C 837.188992 209.059247 835.959825 209.496747 834.376492 209.496747 L 787.15253 209.496747 C 785.787947 209.496747 785.105655 210.152997 785.105655 211.460288 L 785.105655 245.017582 C 785.105655 246.382166 785.787947 247.064457 787.15253 247.064457 L 868.918161 247.064457 C 870.496286 247.064457 871.725452 247.501957 872.600452 248.371749 C 873.527536 249.246749 873.991078 250.475916 873.991078 252.054041 L 873.991078 296.007169 C 873.991078 297.533211 873.527536 298.762377 872.600452 299.689461 C 871.725452 300.564461 870.496286 301.001961 868.918161 301.001961 L 727.157735 301.001961 C 725.579609 301.001961 724.324401 300.564461 723.397318 299.689461 C 722.522318 298.762377 722.084818 297.533211 722.084818 296.007169 L 722.084818 71.340488 C 722.084818 69.814446 722.522318 68.611321 723.397318 67.741529 C 724.324401 66.814446 725.579609 66.350904 727.157735 66.350904 L 868.918161 66.350904 C 870.496286 66.350904 871.725452 66.814446 872.600452 67.741529 C 873.527536 68.611321 873.991078 69.814446 873.991078 71.340488 Z M 999.678586 301.001961 C 996.787961 301.001961 994.876502 299.663419 993.949419 296.991544 L 965.465042 212.522788 C 965.2515 211.376955 964.485875 210.804038 963.173375 210.804038 L 957.121291 210.804038 C 955.756708 210.804038 955.074416 211.48633 955.074416 212.850913 L 955.074416 296.007169 C 955.074416 297.533211 954.610875 298.762377 953.683791 299.689461 C 952.808791 300.564461 951.605666 301.001961 950.079624 301.001961 L 897.126496 301.001961 C 895.543162 301.001961 894.287954 300.564461 893.360871 299.689461 C 892.48587 298.762377 892.053579 297.533211 892.053579 296.007169 L 892.053579 71.340488 C 892.053579 69.814446 892.48587 68.611321 893.360871 67.741529 C 894.287954 66.814446 895.543162 66.350904 897.126496 66.350904 L 985.60046 66.350904 C 999.897336 66.350904 1012.527545 69.486321 1023.496296 75.762363 C 1034.465046 81.981113 1042.949422 90.736322 1048.949422 102.033198 C 1055.006714 113.330074 1058.032756 126.340491 1058.032756 141.074867 C 1058.032756 154.715493 1055.168173 166.746744 1049.439006 177.168619 C 1043.76713 187.533203 1035.772338 195.611329 1025.459838 201.392579 C 1024.584837 202.100913 1024.261921 203.001955 1024.475462 204.095705 L 1059.017131 295.272794 C 1059.235881 295.981127 1059.345256 296.772794 1059.345256 297.642586 C 1059.345256 299.882169 1057.89734 301.001961 1055.006714 301.001961 Z M 957.121291 120.283199 C 955.756708 120.283199 955.074416 120.965491 955.074416 122.330074 L 955.074416 160.88216 C 955.074416 162.189452 955.756708 162.845702 957.121291 162.845702 L 974.881709 162.845702 C 980.88171 162.845702 985.793168 160.960285 989.610877 157.19466 C 993.433794 153.376951 995.340044 148.220701 995.340044 141.725909 C 995.340044 135.069658 993.485877 129.835283 989.777544 126.012366 C 986.121293 122.194658 981.152543 120.283199 974.881709 120.283199 Z M 957.121291 120.283199 " stroke="#ffffff" stroke-width="7.961974" stroke-opacity="1" stroke-miterlimit="4"/><g fill="#ffffff" fill-opacity="1"><g transform="translate(26.685795, 307.420821)"><g><path d="M 21.703125 0.917969 C 27.914062 0.917969 33.207031 -1.945312 35.90625 -6.75 L 31.910156 -9.558594 C 29.480469 -6.15625 26.726562 -4.425781 23.378906 -4.425781 C 17.222656 -4.425781 12.957031 -10.203125 12.957031 -18.734375 C 12.957031 -27.050781 16.953125 -33.367188 22.136719 -33.367188 C 26.5625 -33.367188 32.773438 -28.671875 33.960938 -24.457031 L 33.257812 -38.710938 C 32.613281 -37.09375 31.695312 -36.390625 30.289062 -36.390625 C 27.644531 -36.390625 25.484375 -38.710938 20.464844 -38.710938 C 10.367188 -38.710938 1.890625 -29.585938 1.890625 -18.84375 C 1.890625 -7.9375 10.746094 0.917969 21.703125 0.917969 Z M 21.703125 0.917969 "/></g></g></g><g fill="#ffffff" fill-opacity="1"><g transform="translate(107.299322, 307.420821)"><g><path d="M 22.839844 -14.6875 L 14.6875 -14.6875 L 18.789062 -27.050781 Z M 13.011719 0 C 10.582031 -0.59375 11.609375 -5.398438 12.417969 -7.828125 L 13.066406 -9.828125 L 24.457031 -9.828125 L 25.214844 -7.613281 C 25.96875 -5.128906 26.886719 -0.59375 24.566406 0 L 41.628906 0 C 38.820312 -0.59375 36.5 -5.34375 35.582031 -7.828125 L 25.105469 -37.792969 L 14.039062 -37.792969 C 16.46875 -37.199219 15.441406 -32.339844 14.632812 -29.910156 L 7.019531 -8.152344 C 6.210938 -5.832031 3.78125 -0.648438 0.808594 0 Z M 13.011719 0 "/></g></g></g><g fill="#ffffff" fill-opacity="1"><g transform="translate(192.933751, 307.420821)"><g><path d="M 11.070312 -23.757812 L 18.628906 0 L 26.457031 0 L 34.070312 -23.757812 L 34.070312 -7.9375 C 34.015625 -5.5625 33.367188 -0.59375 30.722656 0 L 47.351562 0 C 44.8125 -0.59375 44.164062 -5.183594 44.058594 -7.667969 L 44.058594 -29.585938 C 44.058594 -31.855469 44.597656 -37.148438 47.351562 -37.792969 L 34.070312 -37.792969 L 25.105469 -12.527344 L 16.144531 -37.792969 L 2.429688 -37.792969 C 5.128906 -37.199219 5.722656 -32.179688 5.777344 -29.804688 L 5.777344 -8.042969 C 5.722656 -5.613281 5.128906 -0.59375 2.429688 0 L 14.414062 0 C 11.878906 -0.59375 11.175781 -5.183594 11.070312 -7.667969 Z M 11.070312 -23.757812 "/></g></g></g><g fill="#ffffff" fill-opacity="1"><g transform="translate(286.450457, 307.420821)"><g><path d="M 27.210938 0 C 33.257812 0 38.171875 -4.96875 38.171875 -10.746094 C 38.171875 -15.0625 35.472656 -19.167969 31.855469 -20.839844 C 33.800781 -22.460938 35.203125 -25.269531 35.203125 -28.128906 C 35.203125 -33.257812 30.722656 -37.792969 25.160156 -37.792969 L 2.96875 -37.792969 C 5.722656 -37.199219 6.261719 -31.855469 6.261719 -29.585938 L 6.261719 -8.261719 C 6.261719 -5.9375 5.722656 -0.648438 2.96875 0 Z M 27.160156 -11.175781 C 27.160156 -7.773438 25.644531 -4.96875 23.703125 -4.859375 L 16.304688 -4.859375 L 16.304688 -17.441406 L 23.703125 -17.441406 C 25.644531 -17.332031 27.160156 -14.578125 27.160156 -11.175781 Z M 21.164062 -32.933594 C 22.945312 -32.933594 24.1875 -30.777344 24.1875 -27.699219 C 24.1875 -24.511719 22.894531 -22.300781 21.164062 -22.300781 L 16.304688 -22.300781 L 16.304688 -32.933594 Z M 21.164062 -32.933594 "/></g></g></g><g fill="#ffffff" fill-opacity="1"><g transform="translate(369.331494, 307.420821)"><g><path d="M 19.597656 0 C 16.84375 -0.648438 16.304688 -5.9375 16.304688 -8.261719 L 16.304688 -15.0625 L 20.085938 -15.0625 L 23.324219 -8.261719 C 24.40625 -5.9375 26.347656 -0.648438 23.863281 0 L 40.816406 0 C 38.171875 -0.539062 35.527344 -4.589844 34.125 -7.234375 L 29.859375 -16.304688 C 33.476562 -18.195312 35.960938 -22.027344 35.960938 -26.402344 C 35.960938 -32.71875 30.9375 -37.792969 24.730469 -37.792969 L 2.96875 -37.792969 C 5.722656 -37.199219 6.261719 -31.855469 6.261719 -29.585938 L 6.261719 -8.261719 C 6.261719 -5.9375 5.722656 -0.648438 2.96875 0 Z M 21.21875 -32.933594 C 23.269531 -32.933594 24.945312 -30.019531 24.945312 -26.402344 C 24.945312 -22.839844 23.269531 -19.921875 21.21875 -19.921875 L 16.304688 -19.921875 L 16.304688 -32.933594 Z M 21.21875 -32.933594 "/></g></g></g><g fill="#ffffff" fill-opacity="1"><g transform="translate(454.156104, 307.420821)"><g><path d="M 16.304688 -29.585938 C 16.304688 -31.855469 16.84375 -37.148438 19.597656 -37.792969 L 2.96875 -37.792969 C 5.722656 -37.148438 6.316406 -31.855469 6.316406 -29.585938 L 6.316406 -8.261719 C 6.316406 -5.9375 5.722656 -0.648438 2.96875 0 L 19.597656 0 C 16.84375 -0.648438 16.304688 -5.9375 16.304688 -8.261719 Z M 16.304688 -29.585938 "/></g></g></g><g fill="#ffffff" fill-opacity="1"><g transform="translate(519.922869, 307.420821)"><g><path d="M 20.464844 0 C 31.101562 0 39.035156 -8.097656 39.035156 -19.058594 C 39.035156 -29.859375 31.261719 -37.792969 20.464844 -37.792969 L 2.96875 -37.792969 C 5.722656 -37.199219 6.261719 -31.855469 6.261719 -29.585938 L 6.261719 -8.261719 C 6.261719 -5.9375 5.722656 -0.648438 2.96875 0 Z M 20.410156 -32.933594 C 24.675781 -32.933594 28.023438 -26.835938 28.023438 -18.898438 C 28.023438 -11.015625 24.675781 -4.859375 20.410156 -4.859375 L 16.25 -4.859375 L 16.25 -32.933594 Z M 20.410156 -32.933594 "/></g></g></g><g fill="#ffffff" fill-opacity="1"><g transform="translate(604.045636, 307.420821)"><g><path d="M 22.839844 0.917969 C 27.859375 0.917969 33.421875 -0.59375 36.984375 -4.535156 L 36.984375 -10.796875 C 36.984375 -13.066406 37.578125 -18.410156 40.332031 -19.058594 L 23.703125 -19.058594 C 26.457031 -18.410156 26.996094 -13.066406 26.996094 -10.796875 L 26.996094 -5.183594 C 25.539062 -4.644531 24.027344 -4.425781 22.894531 -4.425781 C 16.738281 -4.480469 12.957031 -10.90625 12.957031 -18.898438 C 12.957031 -26.886719 16.738281 -33.367188 23 -33.367188 C 29.425781 -33.367188 34.015625 -26.726562 34.664062 -24.457031 L 33.960938 -38.710938 C 33.3125 -37.09375 32.394531 -36.390625 30.828125 -36.390625 C 28.453125 -36.390625 26.023438 -38.710938 20.839844 -38.710938 C 10.636719 -38.710938 1.890625 -29.859375 1.890625 -18.898438 C 1.890625 -7.992188 10.636719 0.917969 22.839844 0.917969 Z M 22.839844 0.917969 "/></g></g></g><g fill="#ffffff" fill-opacity="1"><g transform="translate(688.384329, 307.420821)"><g><path d="M 32.664062 0 L 33.421875 -12.363281 C 32.988281 -10.851562 30.722656 -4.859375 22.621094 -4.859375 L 16.304688 -4.859375 L 16.304688 -16.359375 C 20.085938 -16.035156 23.8125 -14.902344 24.566406 -11.769531 L 24.566406 -26.023438 C 23.8125 -22.894531 20.085938 -21.757812 16.304688 -21.433594 L 16.304688 -32.933594 L 21.542969 -32.933594 C 29.640625 -32.933594 31.910156 -26.941406 32.339844 -25.429688 L 31.585938 -37.792969 L 2.96875 -37.792969 C 5.722656 -37.199219 6.316406 -31.855469 6.316406 -29.585938 L 6.316406 -8.261719 C 6.316406 -5.9375 5.722656 -0.648438 2.96875 0 Z M 32.664062 0 "/></g></g></g><path stroke-linecap="butt" transform="matrix(3.751515, 0, 0, 3.75, -4.196329, 253.195793)" fill="none" stroke-linejoin="miter" d="M 0.000270841 -0.000128126 L 201.119033 -0.000128126 " stroke="#ffffff" stroke-width="1" stroke-opacity="1" stroke-miterlimit="4"/></svg>